<svg width="16" height="16" viewBox="0 0 16 16" fill="none" xmlns="http://www.w3.org/2000/svg">
<path d="M6.90906 2C5.93814 2 4.98902 2.28791 4.18173 2.82733C3.37444 3.36674 2.74523 4.13343 2.37368 5.03045C2.00212 5.92746 1.90491 6.91451 2.09432 7.86677C2.28374 8.81904 2.75128 9.69375 3.43783 10.3803C4.12437 11.0668 4.99908 11.5344 5.95135 11.7238C6.90361 11.9132 7.89066 11.816 8.78767 11.4444C9.68468 11.0729 10.4514 10.4437 10.9908 9.63639C11.5302 8.8291 11.8181 7.87998 11.8181 6.90906C11.818 5.60712 11.3008 4.35853 10.3802 3.43792C9.45958 2.51731 8.21099 2.00008 6.90906 2V2Z" stroke="#74797B" stroke-width="2" stroke-miterlimit="10"/>
<path d="M10.5716 10.5715L14 14" stroke="#74797B" stroke-width="2" stroke-miterlimit="10" stroke-linecap="round"/>
</svg>
